<?xml version="1.0" encoding="UTF-8"?>
<svg xmlns="http://www.w3.org/2000/svg" style="display:none" aria-hidden="true">
  <symbol id="ico-ai" viewBox="0 0 24 24"><path fill="currentColor" d="M12 2a2 2 0 0 1 2 2c0 .74-.4 1.39-1 1.73V7h1a7 7 0 0 1 7 7h1a2 2 0 1 1 0 4h-1v1a2 2 0 1 1-4 0v-1h-2v1a2 2 0 1 1-4 0v-1H7a2 2 0 1 1 0-4h1v-1a7 7 0 0 1 7-7h1V5.73A2 2 0 0 1 12 2zm-5 9a5 5 0 0 0 10 0H7z"/></symbol>
  <symbol id="ico-calendar" viewBox="0 0 24 24"><path fill="currentColor" d="M7 2a1 1 0 0 1 1 1v1h8V3a1 1 0 1 1 2 0v1h1a3 3 0 0 1 3 3v12a3 3 0 0 1-3 3H5a3 3 0 0 1-3-3V7a3 3 0 0 1 3-3h1V3a1 1 0 0 1 1-1zm13 8H4v9a1 1 0 0 0 1 1h14a1 1 0 0 0 1-1v-9z"/></symbol>
  <symbol id="ico-campaign" viewBox="0 0 24 24"><path fill="currentColor" d="M12 2C6.48 2 2 6.48 2 12s4.48 10 10 10 10-4.48 10-10S17.52 2 12 2zm-1 14H9V8h2v8zm4 0h-2V8h2v8z"/></symbol>
  <symbol id="ico-publish" viewBox="0 0 24 24"><path fill="currentColor" d="M2 21l21-9L2 3v7l15 2-15 2v7z"/></symbol>
  <symbol id="ico-crm" viewBox="0 0 24 24"><path fill="currentColor" d="M16 11c1.66 0 2.99-1.34 2.99-3S17.66 5 16 5s-3 1.34-3 3 1.34 3 3 3zm-8 0c1.66 0 2.99-1.34 2.99-3S9.66 5 8 5 5 6.34 5 8s1.34 3 3 3zm0 2c-2.33 0-7 1.17-7 3.5V19h14v-2.5C15 14.17 10.33 13 8 13zm8 0c-.29 0-.62.02-.97.05 1.16.84 1.97 1.97 1.97 3.45V19h6v-2.5c0-2.33-4.67-3.5-7-3.5z"/></symbol>
  <symbol id="ico-analytics" viewBox="0 0 24 24"><path fill="currentColor" d="M3 13h2v8H3v-8zm4-6h2v14H7V7zm4 4h2v10h-2V11zm4-8h2v18h-2V3zm4 12h2v6h-2v-6z"/></symbol>
  <symbol id="ico-tenant" viewBox="0 0 24 24"><path fill="currentColor" d="M12 7V3H2v18h20V7H12zm-2 12H4v-2h6v2zm0-4H4v-2h6v2zm0-4H4V9h6v2zm0-4H4V5h6v2zm8 12h-6v-2h6v2zm0-4h-6v-2h6v2zm0-4h-6V9h6v2zm0-4h-6V5h6v2z"/></symbol>
  <symbol id="ico-apps" viewBox="0 0 24 24"><path fill="currentColor" d="M4 8h4V4H4v4zm6 12h4v-4h-4v4zm-6 0h4v-4H4v4zm0-6h4v-4H4v4zm6 0h4v-4h-4v4zm6-10v4h4V4h-4zm-6 4h4V4h-4v4zm6 6h4v-4h-4v4zm0 6h4v-4h-4v4z"/></symbol>
  <symbol id="ico-play" viewBox="0 0 24 24"><path fill="currentColor" d="M8 5v14l11-7z"/></symbol>
</svg>
